<svg xmlns="http://www.w3.org/2000/svg" width="1024" height="1024" viewBox="0 0 1024 1024"><defs><radialGradient id="bg" cx="50%" cy="30%" r="95%"><stop offset="0%" stop-color="#1f2d44"/><stop offset="55%" stop-color="#0d1117"/><stop offset="100%" stop-color="#03060a"/></radialGradient><linearGradient id="hex" x1="0%" x2="0%" y1="0%" y2="100%"><stop offset="0%" stop-color="#1e3a5f"/><stop offset="60%" stop-color="#0e1f37"/><stop offset="100%" stop-color="#070d1a"/></linearGradient><linearGradient id="rim" x1="0%" x2="0%" y1="0%" y2="100%"><stop offset="0%" stop-color="#7cc4ff"/><stop offset="100%" stop-color="#1d4ed8"/></linearGradient><linearGradient id="kFill" x1="0%" x2="0%" y1="0%" y2="100%"><stop offset="0%" stop-color="#f0f7ff"/><stop offset="100%" stop-color="#a8c5ff"/></linearGradient><linearGradient id="sevenFill" x1="0%" x2="0%" y1="0%" y2="100%"><stop offset="0%" stop-color="#a8e0ff"/><stop offset="50%" stop-color="#3b82f6"/><stop offset="100%" stop-color="#1d4ed8"/></linearGradient><linearGradient id="sFill" x1="0%" x2="0%" y1="0%" y2="100%"><stop offset="0%" stop-color="#9eb1ce"/><stop offset="100%" stop-color="#5a6f8a"/></linearGradient><filter id="glow" width="160%" height="160%" x="-30%" y="-30%"><feGaussianBlur result="b" stdDeviation="16"/><feMerge><feMergeNode in="b"/><feMergeNode in="SourceGraphic"/></feMerge></filter><linearGradient id="spoke" x1="0%" x2="100%" y1="0%" y2="0%"><stop offset="0%" stop-color="#3b82f6" stop-opacity="0"/><stop offset="50%" stop-color="#58a6ff" stop-opacity=".45"/><stop offset="100%" stop-color="#3b82f6" stop-opacity="0"/></linearGradient><polygon id="hexShape" points="512 72 884 288 884 736 512 952 140 736 140 288"/><clipPath id="hexClip"><use href="#hexShape"/></clipPath></defs><rect width="1024" height="1024" fill="url(#bg)" rx="220"/><g fill="none" stroke="#58a6ff" stroke-width="1" opacity=".06"><path d="M0 256 L1024 256 M0 512 L1024 512 M0 768 L1024 768"/><path d="M256 0 L256 1024 M512 0 L512 1024 M768 0 L768 1024"/></g><ellipse cx="512" cy="520" fill="#3b82f6" filter="url(#glow)" opacity=".1" rx="440" ry="380"/><use fill="none" stroke="#3b82f6" stroke-opacity=".18" stroke-width="4" href="#hexShape" transform="translate(-22 -22) scale(1.045)"/><use fill="url(#hex)" stroke="url(#rim)" stroke-width="6" href="#hexShape"/><polygon fill="none" stroke="#58a6ff" stroke-opacity=".22" stroke-width="2" points="512 164 788 328 788 696 512 860 236 696 236 328"/><g clip-path="url(#hexClip)"><g stroke="url(#spoke)" stroke-width="3" opacity=".32"><line x1="512" x2="512" y1="512" y2="90"/><line x1="512" x2="868" y1="512" y2="304"/><line x1="512" x2="868" y1="512" y2="720"/><line x1="512" x2="512" y1="512" y2="934"/><line x1="512" x2="156" y1="512" y2="720"/><line x1="512" x2="156" y1="512" y2="304"/></g><g dominant-baseline="central" font-family="-apple-system, BlinkMacSystemFont, 'SF Pro Display', 'Helvetica Neue', 'Inter', system-ui, sans-serif" font-weight="900" text-anchor="middle"><text x="290" y="540" fill="url(#kFill)" font-size="380" letter-spacing="-12">k</text><text x="512" y="540" fill="url(#sevenFill)" filter="url(#glow)" font-size="500" letter-spacing="-12">7</text><text x="745" y="540" fill="url(#sFill)" font-size="380" letter-spacing="-12">s</text></g></g><g><circle cx="820" cy="820" r="52" fill="#0d1117" stroke="#3fb950" stroke-width="8"/><circle cx="820" cy="820" r="22" fill="#3fb950"/></g><path fill="none" stroke="#fff" stroke-opacity=".18" stroke-width="3" d="M 200 220 Q 512 80 824 220"/></svg>